<svg width="355" height="80" viewBox="0 0 355 47" preserveAspectRatio="none" xmlns="http://www.w3.org/2000/svg"><title>QPL logo</title><g fill="none" fill-rule="evenodd"><path d="M36.012 10.342V31.024l-9.003 5.17V15.512l-9.002-5.17-9.003 5.17V36.193L0 31.023V10.343L9.004 5.17l9.001-5.17h.002l9.003 5.17 9.003 5.17zM9.002 36.194l9.004-5.171 9.003 5.171 9.004 5.17-9.004 5.17-9.003-5.17-9.004-5.17z" fill="#4B2D83"/><path fill="#422980" d="M9.002475 36.194327L27 46.534327 36 41.363581 18 31.0228349z"/><path fill="#5C3296" d="M27 15.5113429L27 36.194327 36 31.023581 36 10.3413429z"/><path fill="#282561" d="M-2.66453526e-15 31.0238794L9 36.1931333 9 15.5116413 -2.66453526e-15 10.3416413z"/><path fill="#422980" d="M-0.00015 10.3417905L9.0036 15.5117905 18 10.3417905 27 15.5117905 36 10.3417905 18 0.000298412698z"/><g transform="translate(48.75 15.201)" fill="#422980" fill-rule="nonzero"><path d="M17.195 16.606a.78.78 0 0 1 .033 1.395l-.856.485c-.312.18-.727.132-1.014-.039L11.71 16.38c-.998.41-2.115.624-3.34.624-4.587 0-8.236-3.629-8.236-8.191A8.203 8.203 0 0 1 8.37.577a8.222 8.222 0 0 1 8.259 8.236c0 2.144-.916 4.438-2.547 6.016l3.113 1.777zm99.688-7.709a2.963 2.963 0 0 0 2.953-2.96c0-1.522-1.326-2.74-2.953-2.74h-3.107v5.7h3.107zm-3.107 7.104a.802.802 0 0 1-.79.786h-.832a.788.788 0 0 1-.791-.786V1.58c0-.428.347-.786.79-.786h4.839c2.896 0 5.28 2.342 5.28 5.185 0 2.901-2.372 5.276-5.257 5.276h-3.239V16zM126.4 1.58c0-.424.365-.786.791-.786h.832c.444 0 .791.358.791.786v9.083c0 2.384 1.485 4.05 3.742 4.05 2.29 0 3.785-1.636 3.785-4.006V1.581c0-.428.348-.786.79-.786h.834c.426 0 .79.362.79.786v9.213c0 3.571-2.585 6.212-6.2 6.212-3.591 0-6.155-2.64-6.155-6.212V1.581zm23.645 6.052c1.395 0 2.251-.94 2.251-2.348 0-1.405-.815-2.241-2.251-2.241h-3.195v4.59h3.195zm.372 6.949c1.378 0 2.384-1.017 2.384-2.393 0-1.296-1.207-2.306-2.756-2.306h-3.239v4.699h3.61zm4.972-2.372c0 2.674-2.144 4.578-5.148 4.578h-4.992a.789.789 0 0 1-.79-.788V1.58c0-.427.347-.785.79-.785h4.796c2.832 0 4.863 1.845 4.863 4.38 0 1.393-.71 2.62-1.767 3.432 1.36.747 2.248 1.954 2.248 3.603zm13.305 2.372c.444 0 .792.358.792.786V16a.79.79 0 0 1-.792.788h-7.576a.79.79 0 0 1-.79-.788V1.58c0-.427.348-.785.79-.785h.855c.426 0 .79.362.79.786v13h5.931zm4.57-13.001c0-.423.365-.786.79-.786h.877c.426 0 .792.362.792.786V16a.804.804 0 0 1-.792.787h-.877a.804.804 0 0 1-.79-.788V1.58zM188.789.577c2.162 0 3.857.685 5.565 2.134.32.32.344.815.021 1.138l-.563.557c-.324.403-.756.378-1.109.028-1.107-.955-2.582-1.543-3.936-1.543-3.19 0-5.734 2.664-5.734 5.9 0 3.217 2.548 5.878 5.734 5.878 1.523 0 2.425-.408 3.948-1.552.322-.255.676-.278 1.01-.052l.634.568c.37.278.327.842.012 1.155-1.514 1.461-3.47 2.218-5.582 2.218-4.594 0-8.28-3.639-8.28-8.193 0-4.562 3.694-8.236 8.28-8.236zm27.593 14.005c.444 0 .792.358.792.786V16a.79.79 0 0 1-.792.788h-7.576a.788.788 0 0 1-.79-.788V1.58c0-.427.346-.785.79-.785h.855c.425 0 .79.363.79.786v13h5.931zm4.57-13.001c0-.424.364-.786.79-.786h.875c.427 0 .792.362.792.786V16a.804.804 0 0 1-.792.787h-.875a.803.803 0 0 1-.79-.788V1.58zm13.947 6.052c1.396 0 2.252-.94 2.252-2.348 0-1.405-.815-2.241-2.252-2.241h-3.195v4.59h3.195zm.372 6.949c1.378 0 2.384-1.017 2.384-2.393 0-1.296-1.207-2.306-2.756-2.306h-3.238v4.699h3.61zm4.973-2.372c0 2.674-2.145 4.578-5.149 4.578h-4.991a.79.79 0 0 1-.792-.788V1.58c0-.427.348-.785.792-.785h4.795c2.833 0 4.864 1.845 4.864 4.38 0 1.393-.71 2.62-1.768 3.432 1.36.747 2.249 1.954 2.249 3.603zm11.291-3.574c1.509 0 2.778-1.257 2.778-2.807 0-1.443-1.292-2.698-2.778-2.698h-3.873v5.505h3.873zM247.62 16a.803.803 0 0 1-.79.786h-.855a.788.788 0 0 1-.791-.786V1.58c0-.429.347-.786.79-.786h5.671c2.847 0 5.149 2.224 5.149 5.012 0 1.978-1.21 3.72-3.093 4.622l2.808 5.177c.291.54-.053 1.181-.704 1.181h-1.116a.749.749 0 0 1-.685-.4l-2.808-5.567h-3.576V16zm20.953-8.192c-.64-1.438-.995-2.233-1.342-3.004l-2.708 6.052h5.412c-.353-.784-.71-1.582-1.362-3.048zm-2.137-6.789a.761.761 0 0 1 .706-.443h.22c.33 0 .57.174.714.46l6.612 14.655c.247.533-.115 1.096-.714 1.096h-.876a.766.766 0 0 1-.714-.461l-1.52-3.373h-7.287l-1.494 3.36a.775.775 0 0 1-.722.474h-.875c-.598 0-.96-.562-.714-1.094l6.664-14.674zm18.459 7.616c1.508 0 2.777-1.257 2.777-2.807 0-1.443-1.292-2.698-2.777-2.698h-3.873v5.505h3.873zM280.977 16a.802.802 0 0 1-.79.786h-.855a.788.788 0 0 1-.791-.786V1.58c0-.428.348-.786.79-.786h5.672c2.847 0 5.149 2.224 5.149 5.012 0 1.977-1.211 3.72-3.093 4.622l2.808 5.178c.29.54-.054 1.18-.704 1.18h-1.117a.745.745 0 0 1-.685-.4l-2.807-5.567h-3.577V16zm12.088-14.006a.775.775 0 0 1 .67-1.2h1.028c.267 0 .499.147.654.35l4.12 5.66 4.123-5.665a.83.83 0 0 1 .65-.345h1.03c.642 0 1 .665.653 1.225l-5.271 7.155V16a.803.803 0 0 1-.791.788h-.855a.788.788 0 0 1-.79-.788V9.195l-5.221-7.2zM21.239 1.629c0-.423.364-.785.79-.785h.832c.445 0 .792.357.792.785v9.084c0 2.384 1.484 4.05 3.742 4.05 2.289 0 3.785-1.636 3.785-4.006V1.629c0-.428.347-.785.79-.785h.833c.426 0 .79.362.79.785v9.215c0 3.57-2.584 6.21-6.198 6.21-3.593 0-6.156-2.639-6.156-6.21V1.629zM48.715 14.63c.444 0 .792.358.792.787v.632a.79.79 0 0 1-.792.787h-8.627a.788.788 0 0 1-.79-.787V1.629c0-.428.346-.785.79-.785h8.627c.443 0 .792.357.792.785v.632a.79.79 0 0 1-.792.788h-6.982v4.569h5.91c.425 0 .79.363.79.785v.632c0 .442-.36.787-.79.787h-5.91v4.808h6.982zm15.147 0c.444 0 .792.358.792.787v.632a.79.79 0 0 1-.792.787h-8.628a.788.788 0 0 1-.79-.787V1.629c0-.427.347-.785.79-.785h8.628c.444 0 .792.357.792.785v.632a.79.79 0 0 1-.792.788h-6.983v4.569h5.91c.426 0 .791.363.791.785v.632c0 .442-.36.787-.79.787h-5.91v4.808h6.982zm8.077 1.42a.788.788 0 0 1-.79.786h-.767a.802.802 0 0 1-.79-.787V1.391c0-.427.365-.765.79-.765h.368c.228 0 .443.103.585.28l9.139 11.326V1.63c0-.427.347-.786.79-.786h.767c.426 0 .792.363.792.786v14.66c0 .426-.367.765-.792.765h-.213a.752.752 0 0 1-.585-.28l-9.294-11.54V16.05zm15.855-2.074l.03-.04c.04-.05.076-.094.155-.195.085-.11.123-.158.163-.204.377-.492.834-.66 1.309-.253l.118.104a7.036 7.036 0 0 0 .925.685c.785.487 1.602.775 2.412.775 1.51 0 2.56-.899 2.56-2.024 0-1.189-.964-2-3.607-3.098-2.96-1.286-4.08-2.444-4.08-4.851 0-2.244 1.87-4.249 5.04-4.249a7.35 7.35 0 0 1 2.822.584c.307.128.583.264.825.402.148.083.253.15.266.164.415.208.622.732.276 1.28-.032.048-.06.091-.122.191l-.003.006a6.819 6.819 0 0 1-.135.211c-.31.482-.751.608-1.265.32-.009-.004-.206-.123-.305-.18a7.662 7.662 0 0 0-.585-.305c-.585-.272-1.156-.442-1.675-.466a2.652 2.652 0 0 0-.12-.003c-1.75 0-2.647.935-2.647 2.023 0 1.156.806 1.933 2.721 2.727 3.68 1.49 5.096 2.734 5.096 5.18 0 2.442-2.292 4.294-5.105 4.294a7.274 7.274 0 0 1-3.344-.825 7.04 7.04 0 0 1-1.523-1.031l-.046-.04c-.365-.322-.47-.69-.156-1.182zm-79.424.758c3.28 0 5.974-2.668 5.974-5.921 0-3.262-2.704-5.966-5.974-5.966-3.266 0-5.952 2.7-5.952 5.966 0 3.257 2.677 5.92 5.952 5.92z"/></g></g></svg>
